<svg width="50" height="50" viewBox="0 0 50 50" fill="none" xmlns="http://www.w3.org/2000/svg">
<g clip-path="url(#clip0)">
<path d="M49.218 10.2903C48.5473 9.46041 47.5504 8.98454 46.4832 8.98454H8.3727L8.03237 6.54549C7.79136 4.81835 6.29449 3.51582 4.55046 3.51582H1.56249C0.699605 3.51582 0 4.21543 0 5.07831C0 5.9412 0.699605 6.6408 1.56249 6.6408H4.55046C4.74421 6.6408 4.91062 6.78553 4.93728 6.97742L9.15493 37.2047C9.39594 38.9319 10.8928 40.2344 12.6368 40.2344H14.3311C14.1576 40.7234 14.0623 41.2491 14.0623 41.7968C14.0623 44.3815 16.1651 46.4843 18.7498 46.4843C21.3344 46.4843 23.4373 44.3815 23.4373 41.7968C23.4373 41.2491 23.342 40.7234 23.1685 40.2344H31.5185C31.345 40.7234 31.2497 41.2491 31.2497 41.7968C31.2497 44.3815 33.3525 46.4843 35.9372 46.4843C38.5218 46.4843 40.6247 44.3815 40.6247 41.7968C40.6247 41.2491 40.5294 40.7234 40.3559 40.2344H43.7497C44.6126 40.2344 45.3122 39.5347 45.3122 38.6719C45.3122 37.809 44.6126 37.1094 43.7497 37.1094H12.6369C12.4432 37.1094 12.2768 36.9646 12.2501 36.7727L11.8611 33.9844H42.6326C44.2788 33.9844 45.7246 32.8159 46.0705 31.2053L49.921 13.237C50.1447 12.1939 49.8885 11.1199 49.218 10.2903ZM20.3124 41.7968C20.3124 42.6584 19.6114 43.3593 18.7499 43.3593C17.8884 43.3593 17.1874 42.6584 17.1874 41.7968C17.1874 40.9353 17.8884 40.2344 18.7499 40.2344C19.6114 40.2344 20.3124 40.9352 20.3124 41.7968ZM37.4998 41.7968C37.4998 42.6584 36.7988 43.3593 35.9373 43.3593C35.0758 43.3593 34.3748 42.6584 34.3748 41.7968C34.3748 40.9353 35.0758 40.2344 35.9373 40.2344C36.7988 40.2344 37.4998 40.9352 37.4998 41.7968ZM46.8654 12.5819L43.0151 30.5498C42.9766 30.7291 42.8157 30.8593 42.6326 30.8593H11.4249L8.80874 12.1094H46.4831C46.6377 12.1094 46.734 12.1883 46.7875 12.2545C46.8409 12.3207 46.8978 12.4311 46.8654 12.5819Z" fill="#EFEFEF"/>
</g>
<defs>
<clipPath id="clip0">
<rect width="50" height="50" fill="white"/>
</clipPath>
</defs>
</svg>
