<svg width="43" height="55" viewBox="0 0 43 55" fill="none" xmlns="http://www.w3.org/2000/svg">
<path d="M42.125 12.6041C42.125 11.5775 41.6635 10.6651 40.9477 10.0347L39.8176 3.24951C39.7258 2.69672 39.2468 2.29163 38.6874 2.29163C38.1279 2.29163 37.6489 2.69672 37.5572 3.24951L36.4271 10.0347C35.7113 10.6651 35.2498 11.5775 35.2498 12.6041C35.2498 13.901 35.9799 15.0188 37.043 15.604C36.6461 16.0164 36.3957 16.5715 36.3957 17.1875C36.3957 18.0247 36.8692 18.7271 37.5415 19.1271V19.8313C36.8692 20.2313 36.3957 20.9336 36.3957 21.7709C36.3957 22.6081 36.8692 23.3104 37.5415 23.7105V50.4167C37.5415 51.68 36.5142 52.7084 35.2499 52.7084C33.9854 52.7084 32.9583 51.68 32.9583 50.4167V28.7846C32.9583 26.8129 31.3536 25.2083 29.382 25.2083C28.4286 25.2083 27.5312 25.5797 26.853 26.2556L24.9375 28.1714L24.6018 27.8357C24.1721 27.406 23.4112 27.406 22.9816 27.8357L19.7013 31.1168C19.4083 30.3541 19.2084 29.5613 19.2084 28.7376V28.6459C19.2084 28.0125 18.6959 27.5 18.0625 27.5V9.16663H22.6459C23.2792 9.16663 23.7917 8.65412 23.7917 8.02076C23.7917 7.3874 23.2792 6.87489 22.6459 6.87489H19.7119C20.8113 5.65587 21.5 4.05883 21.5 2.29163V1.14587C21.5 0.51251 20.9875 0 20.3541 0H8.89587C8.26251 0 7.75 0.51251 7.75 1.14587V2.29174C7.75 4.05894 8.43868 5.65598 9.53814 6.87511H6.60413C5.97077 6.87511 5.45826 7.38762 5.45826 8.02098C5.45826 8.65434 5.97077 9.16685 6.60413 9.16685H11.1875V27.5C10.5541 27.5 10.0416 28.1042 10.0416 28.7376C10.0416 30.9218 8.9585 32.9919 7.07185 34.4175C3.19134 37.3493 0.875 41.1884 0.875 44.6875C0.875 49.1586 3.38566 52.3417 7.75956 53.9017C7.78566 54.5117 8.27938 55 8.89587 55H20.3542C20.9708 55 21.4644 54.5117 21.4905 53.9017C25.8643 52.3417 28.375 49.1586 28.375 44.6875C28.375 41.5435 26.4933 38.1307 23.2986 35.3425L26.8934 31.7477C27.3411 31.3 27.3411 30.575 26.8934 30.1274L26.5579 29.7918L28.4734 27.8772C29.2231 27.1297 30.6666 27.735 30.6666 28.7847V50.4167C30.6666 52.9445 32.7233 55 35.25 55C37.7767 55 39.8334 52.9445 39.8334 50.4166V23.7105C40.5057 23.3104 40.9792 22.6081 40.9792 21.7709C40.9792 20.9336 40.5057 20.2313 39.8334 19.8313V19.1271C40.5057 18.7271 40.9792 18.0247 40.9792 17.1875C40.9792 16.5715 40.7288 16.0164 40.3319 15.604C41.3949 15.0188 42.125 13.901 42.125 12.6041ZM10.0416 2.29163H19.2083C19.2084 4.81948 17.1517 6.875 14.625 6.875C12.0983 6.875 10.0416 4.81948 10.0416 2.29163ZM15.7709 9.16663V27.5H13.4792V9.16663H15.7709ZM25.1715 41.25C25.7578 42.4118 26.0833 43.5789 26.0833 44.6875C26.0833 49.7845 21.9072 52.7084 14.6249 52.7084C7.34255 52.7084 3.16663 49.7845 3.16663 44.6875C3.16663 43.5789 3.49212 42.4118 4.07843 41.25H25.1715ZM23.6453 38.9584H5.60468C6.39229 38.0074 7.3404 37.088 8.45501 36.246C10.6012 34.6235 11.9507 32.3385 12.264 29.7917H16.9794C17.277 32.3005 18.631 34.6112 20.7951 36.246C21.9097 37.0879 22.8577 38.0074 23.6453 38.9584ZM21.5614 33.8392C21.3289 33.6219 21.0795 33.4172 20.8797 33.1791L23.7917 30.2661L24.4631 30.9375L21.5614 33.8392ZM38.6875 13.75C38.0564 13.75 37.5416 13.2364 37.5416 12.6041C37.5416 11.972 38.0564 11.4583 38.6875 11.4583C39.3186 11.4583 39.8334 11.9718 39.8334 12.6041C39.8334 13.2364 39.3186 13.75 38.6875 13.75Z" fill="#EFEFEF"/>
</svg>
